<svg width="66" height="27" viewBox="0 0 66 27" fill="none" xmlns="http://www.w3.org/2000/svg">
<path d="M0.224 26L9.188 0.799998H15.992L24.812 26H20.348L18.44 20.492H6.668L4.688 26H0.224ZM17.144 16.604L12.608 3.248L7.928 16.604H17.144ZM28.6986 9.476C30.5466 7.556 32.7906 6.596 35.4306 6.596C37.9986 6.596 40.0386 7.556 41.5506 9.476V0.799998H45.6906V26H41.5506V23.48C40.0386 25.352 37.9986 26.288 35.4306 26.288C32.8146 26.288 30.5706 25.328 28.6986 23.408C26.8506 21.464 25.9266 19.148 25.9266 16.46C25.9266 13.724 26.8506 11.396 28.6986 9.476ZM29.7786 16.46C29.7786 18.14 30.3546 19.58 31.5066 20.78C32.6586 21.956 34.0866 22.544 35.7906 22.544C37.4466 22.544 38.8626 21.944 40.0386 20.744C41.2386 19.544 41.8386 18.116 41.8386 16.46C41.8386 14.804 41.2386 13.376 40.0386 12.176C38.8626 10.952 37.4466 10.34 35.7906 10.34C34.1106 10.34 32.6826 10.94 31.5066 12.14C30.3546 13.34 29.7786 14.78 29.7786 16.46ZM49.1306 12.356C49.1306 10.556 49.8626 9.152 51.3266 8.144C52.7906 7.112 54.6626 6.596 56.9426 6.596C59.6546 6.596 62.1146 7.256 64.3226 8.576V12.572C61.5386 10.964 59.0786 10.16 56.9426 10.16C55.8866 10.16 55.0226 10.364 54.3506 10.772C53.7026 11.156 53.3786 11.672 53.3786 12.32C53.3786 12.536 53.4146 12.74 53.4866 12.932C53.5826 13.1 53.7266 13.256 53.9186 13.4C54.1346 13.544 54.3386 13.664 54.5306 13.76C54.7466 13.856 55.0466 13.964 55.4306 14.084C55.8146 14.18 56.1386 14.264 56.4026 14.336C56.6666 14.384 57.0506 14.468 57.5546 14.588C58.0826 14.708 58.5026 14.804 58.8146 14.876C61.0226 15.404 62.6186 16.148 63.6026 17.108C64.6106 18.068 65.1266 19.244 65.1506 20.636C65.1506 21.932 64.7426 23.024 63.9266 23.912C63.1346 24.8 62.1866 25.424 61.0826 25.784C59.9786 26.12 58.7666 26.288 57.4466 26.288C54.7346 26.288 52.0946 25.46 49.5266 23.804V19.592C50.3906 20.336 51.5786 21.032 53.0906 21.68C54.6026 22.328 56.0546 22.652 57.4466 22.652C58.3826 22.652 59.1866 22.472 59.8586 22.112C60.5546 21.728 60.9026 21.224 60.9026 20.6C60.9026 19.952 60.5066 19.424 59.7146 19.016C58.9226 18.584 57.6866 18.2 56.0066 17.864C53.6546 17.384 51.9146 16.724 50.7866 15.884C49.6826 15.02 49.1306 13.844 49.1306 12.356Z" fill="black"/>
</svg>
