<svg xmlns="http://www.w3.org/2000/svg" width="35" height="35" viewBox="0 0 35 35" fill="none">
  <path d="M28.1018 7.7729C26.1623 6.86874 24.0623 6.21249 21.8748 5.83332C21.8556 5.83271 21.8365 5.8363 21.8189 5.84386C21.8012 5.85142 21.7855 5.86276 21.7727 5.87707C21.5102 6.35832 21.2039 6.9854 20.9998 7.46665C18.6796 7.11665 16.32 7.11665 13.9998 7.46665C13.7956 6.97082 13.4893 6.35832 13.2123 5.87707C13.1977 5.8479 13.1539 5.83332 13.1102 5.83332C10.9227 6.21249 8.83726 6.86874 6.8831 7.7729C6.86851 7.7729 6.85393 7.78749 6.83935 7.80207C2.87268 13.7375 1.77893 19.5125 2.31851 25.2292C2.31851 25.2583 2.3331 25.2875 2.36226 25.3021C4.98726 27.2271 7.51018 28.3937 10.0039 29.1667C10.0477 29.1812 10.0914 29.1667 10.106 29.1375C10.6893 28.3354 11.2143 27.4896 11.6664 26.6C11.6956 26.5417 11.6664 26.4833 11.6081 26.4687C10.7768 26.1479 9.98935 25.7687 9.21643 25.3312C9.1581 25.3021 9.1581 25.2146 9.20185 25.1708C9.36226 25.0542 9.52268 24.9229 9.6831 24.8062C9.71226 24.7771 9.75601 24.7771 9.78518 24.7917C14.8018 27.0812 20.2123 27.0812 25.1706 24.7917C25.1998 24.7771 25.2435 24.7771 25.2727 24.8062C25.4331 24.9375 25.5935 25.0542 25.7539 25.1854C25.8123 25.2292 25.8123 25.3167 25.7393 25.3458C24.981 25.7979 24.1789 26.1625 23.3477 26.4833C23.2893 26.4979 23.2748 26.5708 23.2893 26.6146C23.756 27.5042 24.281 28.35 24.8498 29.1521C24.8935 29.1667 24.9373 29.1812 24.981 29.1667C27.4893 28.3937 30.0123 27.2271 32.6373 25.3021C32.6664 25.2875 32.681 25.2583 32.681 25.2292C33.3227 18.6229 31.6164 12.8917 28.1602 7.80207C28.1456 7.78749 28.131 7.7729 28.1018 7.7729ZM12.4248 21.7437C10.9227 21.7437 9.66851 20.3583 9.66851 18.6521C9.66851 16.9458 10.8935 15.5604 12.4248 15.5604C13.9706 15.5604 15.1956 16.9604 15.181 18.6521C15.181 20.3583 13.956 21.7437 12.4248 21.7437ZM22.5893 21.7437C21.0873 21.7437 19.8331 20.3583 19.8331 18.6521C19.8331 16.9458 21.0581 15.5604 22.5893 15.5604C24.1352 15.5604 25.3602 16.9604 25.3456 18.6521C25.3456 20.3583 24.1352 21.7437 22.5893 21.7437Z" fill="black"/>
</svg>