<svg xmlns="http://www.w3.org/2000/svg" width="20" height="23" viewBox="0 0 20 23" fill="none">
  <path d="M11.5 1V5.59677C11.5 6.70134 12.3954 7.59677 13.5 7.59677H18.5M1.5 20H18.5M10.75 0.5V0.5C11.2316 0.5 11.6949 0.684463 12.0448 1.01548L18.3746 7.00502C18.7738 7.38276 19 7.90815 19 8.45775V20.5C19 21.6046 18.1046 22.5 17 22.5H3C1.89543 22.5 1 21.6046 1 20.5V2.5C1 1.39543 1.89543 0.5 3 0.5H10.75Z" stroke="black"/>
  <path d="M17 22.5H2.25C1.55964 22.5 1 21.9404 1 21.25V20.5C1 20.2239 1.22386 20 1.5 20H18.5H19V8.45775C19 7.90815 18.7685 7.37775 18.3693 7C18.4365 7.30662 18.203 7.59677 17.8891 7.59677H13.5C12.3954 7.59677 11.5 6.70134 11.5 5.59677V1.72519C11.5 1.35512 11.8455 1.08208 12.2056 1.16762L18.3693 7C18.7685 7.37775 19 7.90815 19 8.45775V20V20.5C19 21.6046 18.1046 22.5 17 22.5Z" fill="black"/>
  <path d="M10.75 0.5V0.5C11.2316 0.5 11.6949 0.684462 12.0448 1.01548L12.2056 1.16762M12.2056 1.16762V1.16762C11.8455 1.08208 11.5 1.35512 11.5 1.72519V5.59677C11.5 6.70134 12.3954 7.59677 13.5 7.59677H17.8891C18.203 7.59677 18.4365 7.30662 18.3693 7V7M12.2056 1.16762L18.3693 7M18.3693 7V7C18.7685 7.37775 19 7.90815 19 8.45775V20M19 20V20.5C19 21.6046 18.1046 22.5 17 22.5H2.25C1.55964 22.5 1 21.9404 1 21.25V20.5C1 20.2239 1.22386 20 1.5 20V20H18.5H19Z" stroke="black"/>
</svg>