<svg width="62" height="62" viewBox="0 0 62 62" fill="none" xmlns="http://www.w3.org/2000/svg">
<path d="M27.9051 45.9058C28.1436 45.9061 28.3797 45.9534 28.5999 46.045C28.8201 46.1366 29.0202 46.2706 29.1886 46.4395C29.357 46.6084 29.4904 46.8088 29.5814 47.0293C29.6723 47.2497 29.719 47.486 29.7186 47.7244C29.7183 47.9629 29.671 48.199 29.5794 48.4192C29.4878 48.6394 29.3538 48.8395 29.1849 49.0078C29.016 49.1762 28.8156 49.3097 28.5952 49.4007C28.3747 49.4916 28.1385 49.5383 27.9 49.5379C27.4183 49.5373 26.9567 49.3453 26.6166 49.0042C26.2765 48.6631 26.0858 48.2009 26.0865 47.7193C26.0872 47.2376 26.2792 46.776 26.6202 46.4359C26.9613 46.0958 27.4235 45.9051 27.9051 45.9058ZM56.3838 34.676C56.1453 34.6759 55.9092 34.6287 55.6889 34.5373C55.4687 34.4459 55.2685 34.312 55.1 34.1432C54.9315 33.9744 54.7979 33.7741 54.7068 33.5537C54.6157 33.3333 54.5689 33.0971 54.569 32.8587C54.5692 32.6202 54.6163 32.384 54.7078 32.1638C54.7992 31.9435 54.9331 31.7434 55.1019 31.5749C55.2706 31.4063 55.4709 31.2727 55.6913 31.1816C55.9117 31.0905 56.1479 31.0437 56.3864 31.0439C56.868 31.0442 57.3298 31.2359 57.6702 31.5767C58.0105 31.9175 58.2015 32.3796 58.2012 32.8612C58.2008 33.3429 58.0092 33.8047 57.6684 34.145C57.3275 34.4854 56.8655 34.6764 56.3838 34.676ZM56.3838 27.2464C54.8947 27.2477 53.467 27.8399 52.4141 28.8928C51.3612 29.9457 50.769 31.3734 50.7676 32.8625C50.7676 33.4644 50.8684 34.0638 51.0647 34.6476L32.5138 44.5237C31.9994 43.7768 31.3111 43.1662 30.5083 42.7445C29.7054 42.3228 28.812 42.1027 27.9051 42.1031C25.7636 42.1031 23.8132 43.3302 22.8677 45.2444L6.20257 36.4559C4.44073 35.5311 3.12323 32.6326 3.26273 29.9924C3.33507 28.6155 3.8104 27.546 4.53632 27.1327C4.99615 26.8744 5.54898 26.895 6.13798 27.2024L6.24648 27.2619C10.664 29.5869 25.1152 37.1999 25.7248 37.4815C26.6626 37.9181 27.1844 38.0938 28.7861 37.3343L58.6597 21.7981C59.0989 21.6328 59.6104 21.2117 59.6104 20.5736C59.6104 19.6901 58.6959 19.3414 58.6933 19.3414C56.9935 18.5276 54.3817 17.3057 51.8346 16.1122C46.3889 13.5624 40.2173 10.6743 37.5074 9.25344C35.1669 8.02894 33.2836 9.06228 32.9478 9.26894L32.2968 9.59186C20.0983 15.6239 3.77165 23.7098 2.84165 24.2755C1.18057 25.2882 0.149816 27.3058 0.015483 29.809C-0.191184 33.7796 1.83157 37.9207 4.72748 39.4371L22.351 48.5253C22.5451 49.8603 23.2131 51.0809 24.2329 51.964C25.2526 52.8472 26.5561 53.334 27.9051 53.3354C29.3785 53.3329 30.792 52.7524 31.8418 51.7186C32.8916 50.6847 33.4937 49.2803 33.5187 47.8071L52.9299 37.2852C53.9116 38.055 55.1335 38.4761 56.3838 38.4761C57.8729 38.4747 59.3006 37.8826 60.3535 36.8297C61.4065 35.7767 61.9986 34.349 62 32.8599C61.9986 31.3709 61.4065 29.9432 60.3535 28.8902C59.3006 27.8373 57.8729 27.2451 56.3838 27.2438" fill="black"/>
</svg>
