<svg width="56" height="56" viewBox="0 0 56 56" fill="none" xmlns="http://www.w3.org/2000/svg">
<circle cx="28" cy="28" r="28" fill="#B7B7B7"/>
<path d="M17.7692 15.8667C17.3 15.8667 16.85 16.0633 16.5182 16.4134C16.1864 16.7635 16 17.2383 16 17.7333V19.6C16 20.0951 16.1864 20.5699 16.5182 20.9199C16.85 21.27 17.3 21.4667 17.7692 21.4667H18.6538V38.2667C18.6538 39.2568 19.0266 40.2064 19.6902 40.9065C20.3538 41.6067 21.2538 42 22.1923 42H32.8077C33.7462 42 34.6462 41.6067 35.3098 40.9065C35.9734 40.2064 36.3462 39.2568 36.3462 38.2667V21.4667H37.2308C37.7 21.4667 38.15 21.27 38.4818 20.9199C38.8136 20.5699 39 20.0951 39 19.6V17.7333C39 17.2383 38.8136 16.7635 38.4818 16.4134C38.15 16.0633 37.7 15.8667 37.2308 15.8667H31.0385C31.0385 15.3716 30.8521 14.8968 30.5203 14.5467C30.1885 14.1967 29.7385 14 29.2692 14H25.7308C25.2615 14 24.8115 14.1967 24.4797 14.5467C24.1479 14.8968 23.9615 15.3716 23.9615 15.8667H17.7692ZM23.0769 23.3333C23.3115 23.3333 23.5365 23.4317 23.7024 23.6067C23.8683 23.7817 23.9615 24.0191 23.9615 24.2667V37.3333C23.9615 37.5809 23.8683 37.8183 23.7024 37.9933C23.5365 38.1683 23.3115 38.2667 23.0769 38.2667C22.8423 38.2667 22.6173 38.1683 22.4514 37.9933C22.2855 37.8183 22.1923 37.5809 22.1923 37.3333V24.2667C22.1923 24.0191 22.2855 23.7817 22.4514 23.6067C22.6173 23.4317 22.8423 23.3333 23.0769 23.3333ZM27.5 23.3333C27.7346 23.3333 27.9596 23.4317 28.1255 23.6067C28.2914 23.7817 28.3846 24.0191 28.3846 24.2667V37.3333C28.3846 37.5809 28.2914 37.8183 28.1255 37.9933C27.9596 38.1683 27.7346 38.2667 27.5 38.2667C27.2654 38.2667 27.0404 38.1683 26.8745 37.9933C26.7086 37.8183 26.6154 37.5809 26.6154 37.3333V24.2667C26.6154 24.0191 26.7086 23.7817 26.8745 23.6067C27.0404 23.4317 27.2654 23.3333 27.5 23.3333ZM32.8077 24.2667V37.3333C32.8077 37.5809 32.7145 37.8183 32.5486 37.9933C32.3827 38.1683 32.1577 38.2667 31.9231 38.2667C31.6885 38.2667 31.4635 38.1683 31.2976 37.9933C31.1317 37.8183 31.0385 37.5809 31.0385 37.3333V24.2667C31.0385 24.0191 31.1317 23.7817 31.2976 23.6067C31.4635 23.4317 31.6885 23.3333 31.9231 23.3333C32.1577 23.3333 32.3827 23.4317 32.5486 23.6067C32.7145 23.7817 32.8077 24.0191 32.8077 24.2667Z" fill="#F20000"/>
</svg>
