<svg xmlns="http://www.w3.org/2000/svg" width="25" height="29" viewBox="0 0 25 29" fill="none">
  <path d="M3.57143 2.25C1.60156 2.25 0 3.81953 0 5.75V23.25C0 25.1805 1.60156 26.75 3.57143 26.75H21.4286C23.3984 26.75 25 25.1805 25 23.25V5.75C25 3.81953 23.3984 2.25 21.4286 2.25H3.57143ZM20.1507 6.84375L14.3583 13.3297L21.1719 22.1562H15.8371L11.6629 16.8023L6.88058 22.1562H4.22991L10.4241 15.2164L3.88951 6.84375H9.35826L13.1362 11.7383L17.5 6.84375H20.1507ZM18.0413 20.6031L8.56027 8.31484H6.98103L16.5681 20.6031H18.0357H18.0413Z" fill="black"/>
</svg>