<svg width="250" height="19" viewBox="0 0 250 19" fill="none" xmlns="http://www.w3.org/2000/svg">
<path d="M0.45 0.599998H4.098L10.69 6.808V11.64L4.482 5.784V19H0.45V0.599998ZM22.498 0.599998H18.882L12.258 6.808V11.64L18.466 5.784V19H22.498V0.599998ZM28.2475 2.808V19H32.2795V11.64H38.4875V7.992H32.2795V4.216H38.4875V0.599998H31.8955L28.2475 2.808ZM50.2955 2.808V19H46.2635V11.64H39.9275V7.992H46.2635V4.216H39.9275V0.599998H46.5195L50.2955 2.808ZM64.0438 12.792L57.4198 19L53.8038 17.848L62.2517 9.816L53.8038 1.784L57.4198 0.599998L64.0438 6.808V12.792ZM67.2758 9.816L75.8518 17.848L72.1078 19L65.4838 12.792V6.808L72.1078 0.599998L75.8518 1.784L67.2758 9.816ZM88.0125 12.792L81.3885 19L77.7725 17.848L86.2205 9.816L77.7725 1.784L81.3885 0.599998L88.0125 6.808V12.792ZM91.2445 9.816L99.8205 17.848L96.0765 19L89.4525 12.792V6.808L96.0765 0.599998L99.8205 1.784L91.2445 9.816ZM103.341 0.599998H107.373V19H103.341V0.599998ZM113.138 0.599998H116.786L123.378 6.808V11.64L117.17 5.784V19H113.138V0.599998ZM135.186 0.599998H131.57L124.946 6.808V11.64L131.154 5.784V19H135.186V0.599998ZM140.935 2.808V19H144.967V11.64H151.175V7.992H144.967V4.216H151.175V0.599998H144.583L140.935 2.808ZM162.983 2.808V19H158.951V11.64H152.615V7.992H158.951V4.216H152.615V0.599998H159.207L162.983 2.808ZM168.731 0.599998H172.763V15.256H178.843V19H168.731V0.599998ZM180.539 15.256V19H190.779V15.256H180.539ZM193.654 0.599998H197.686V19H193.654V0.599998ZM202.49 2.808V9.56L206.138 11.736H212.73V7.992H206.394V4.376H212.73V0.599998H206.138L202.49 2.808ZM224.538 10.2V16.824L220.762 19H214.298V15.384H220.506V11.736H214.17V7.992H220.762L224.538 10.2ZM206.522 13.176H202.49V16.824L206.234 19H212.73V15.384H206.522V13.176ZM224.538 6.552H220.506V4.376H214.17V0.599998H220.762L224.538 2.808V6.552ZM249.789 4.216H240.573V19H236.157V4.216H227.741V0.599998H249.789V4.216Z" fill="black"/>
</svg>
